# xmcd
#
# Track frame offsets: 
#        150
#        75826
#        113987
#        147037
#        181389
#        209125
#        259265
#        289083
#
# Disc length: 4145 seconds
#
# Revision: 0
# Processed by: cddbd v1.5.2PL0 Copyright (c) Steve Scherf et al.
# Submitted via: ExactAudioCopy v0.95b4
#
DISCID=73102f08
DTITLE=Karel Ancerl - Czech Philharmonic Orchestra - Ancerl Gold Editi
DTITLE=on vol. 42
DYEAR=2005
DGENRE=Classical
TTITLE0=Liszt - Les Preludes
TTITLE1=Lubor Bárta - Concerto for Viola and orchestra: Allegro comodo
TTITLE2=Lubor Bárta - Concerto for Viola and orchestra: Moderato assai
TTITLE3=Lubor Bárta - Concerto for Viola and orchestra: Allegro con br
TTITLE3=io
TTITLE4=Shostakovich - Cello concerto no. 1: Allegretto
TTITLE5=Shostakovich - Cello concerto no. 1: Moderato
TTITLE6=Shostakovich - Cello concerto no. 1: Cadenza
TTITLE7=Shostakovich - Cello concerto no. 1: Allegro con moto
EXTD=
EXTT0=
EXTT1=
EXTT2=
EXTT3=
EXTT4=
EXTT5=
EXTT6=
EXTT7=
PLAYORDER=
